<svg xmlns="http://www.w3.org/2000/svg" viewBox="0 0 360 300" fill="none" role="img" aria-labelledby="title desc">
  <title id="title">两个快乐的象五子棋小伙伴</title>
  <desc id="desc">微笑的红色帅棋与绿色将棋坐在木制棋盘旁，身后是柔和的山丘和叶子。</desc>
  <defs>
    <linearGradient id="red" x1="90" y1="83" x2="157" y2="178" gradientUnits="userSpaceOnUse"><stop stop-color="#ffaf87"/><stop offset="1" stop-color="#ed7867"/></linearGradient>
    <linearGradient id="green" x1="228" y1="89" x2="266" y2="182" gradientUnits="userSpaceOnUse"><stop stop-color="#d7e8c9"/><stop offset="1" stop-color="#a7cdaa"/></linearGradient>
    <linearGradient id="wood" x1="170" y1="183" x2="186" y2="263" gradientUnits="userSpaceOnUse"><stop stop-color="#f9dda2"/><stop offset="1" stop-color="#e7b774"/></linearGradient>
    <filter id="shadow" x="-30%" y="-30%" width="160%" height="180%"><feDropShadow dx="0" dy="4" stdDeviation="2" flood-color="#503b32" flood-opacity=".1"/></filter>
  </defs>
  <!-- A quiet little landscape leaves the two friends as the focus. -->
  <path d="M6 173c16-32 39-51 62-34 11-33 37-47 65-10 27-43 55-42 82-11 17-34 39-40 60-10 26-41 46-31 77 47v54H6z" fill="#dce9cd"/>
  <path d="M5 189c26-43 55-52 85-23 31-30 63-41 93-15 33-27 58-30 84-1 37-32 70-4 88 37v37H5z" fill="#b9d9bb" opacity=".6"/>
  <path d="M29 114c-13 1-23-7-24-17 9-3 22 3 24 17M30 114c0-14 8-23 20-23 2 11-6 21-20 23" fill="#93b69c"/>
  <path d="m28 114 5 13" stroke="#6f9274" stroke-width="2.5" stroke-linecap="round"/>
  <path d="M317 59c-12-1-20-10-19-20 12 0 21 8 19 20M318 59c4-13 14-19 25-16-1 12-11 19-25 16" fill="#b9d9bb"/>
  <path d="m317 60-4 14" stroke="#93b69c" stroke-width="2.5" stroke-linecap="round"/>
  <path d="M67 53c8-15 22-13 28-2 13-5 23 0 23 9H59c-2-6 2-10 8-7" fill="#fffdf4"/>
  <path d="M267 78c8-15 22-13 28-2 13-5 23 0 23 9h-60c-1-6 3-10 9-7" fill="#fffdf4"/>
  <ellipse cx="183" cy="258" rx="148" ry="19" fill="#efc77a" opacity=".24"/>
  <path d="M24 252c6-5 12-4 16 1-5 5-11 5-16-1M317 255c9-6 17-4 22 1-8 5-16 5-22-1" fill="#e7c897"/>
  <!-- Chunky, toy-like board. -->
  <g stroke="#503b32" stroke-linejoin="round" filter="url(#shadow)">
    <path d="m40 219 140-48 144 48v18l-144 51L40 237z" fill="#bd8a55" stroke-width="3"/>
    <path d="m40 219 140 48 144-48-144-48z" fill="url(#wood)" stroke-width="3"/>
    <path d="m180 267 0 20M45 229l133 46M187 275l131-46" stroke="#9c704c" stroke-width="2"/>
    <path d="m54 219 126-42 130 42-130 43z" fill="#ffe2a5" stroke="#ae8050" stroke-width="2"/>
    <g stroke="#bd9361" stroke-width="1.3">
      <path d="m79 210 130 43M104 201l130 44M129 194l130 43M154 185l131 44M180 177l130 42"/>
      <path d="m78 227 128-42M104 235l128-42M129 244l128-42M154 253l130-43"/>
    </g>
    <g stroke-width="2">
      <ellipse cx="138" cy="210" rx="14" ry="7" fill="#cd6658"/><path d="M124 205v5c0 10 28 10 28 0v-5" fill="#ed7867"/><ellipse cx="138" cy="205" rx="14" ry="7" fill="#ffc098"/>
      <ellipse cx="211" cy="227" rx="14" ry="7" fill="#88ad8c"/><path d="M197 222v5c0 10 28 10 28 0v-5" fill="#b9d9bb"/><ellipse cx="211" cy="222" rx="14" ry="7" fill="#d9e7bf"/>
      <ellipse cx="181" cy="244" rx="14" ry="7" fill="#cd6658"/><path d="M167 239v5c0 10 28 10 28 0v-5" fill="#ed7867"/><ellipse cx="181" cy="239" rx="14" ry="7" fill="#ffc098"/>
    </g>
  </g>
  <!-- Coral commander, with a small happy wave. -->
  <g transform="rotate(-11 105 133)" stroke="#503b32" stroke-linecap="round" stroke-linejoin="round">
    <path d="m58 153-13 2M152 142l10-10" stroke-width="9"/>
    <ellipse cx="43" cy="154" rx="6" ry="8" fill="#503b32" stroke="none"/>
    <ellipse cx="164" cy="130" rx="6" ry="8" fill="#503b32" stroke="none" transform="rotate(20 164 130)"/>
    <ellipse cx="82" cy="186" rx="10" ry="5.5" fill="#503b32" stroke="none"/>
    <ellipse cx="127" cy="186" rx="10" ry="5.5" fill="#503b32" stroke="none"/>
    <circle cx="105" cy="135" r="55" fill="#b95b4e" stroke-width="3"/>
    <circle cx="105" cy="131" r="55" fill="url(#red)" stroke-width="3"/>
    <circle cx="105" cy="131" r="47" fill="#ffe4b8" stroke="#fff8e9" stroke-width="4"/>
    <path d="M71 99c6-7 14-12 23-13" stroke="#fff8e9" stroke-width="5"/>
    <text x="105" y="134" fill="#d86353" stroke="none" font-family="'PingFang SC','Microsoft YaHei',sans-serif" font-size="43" font-weight="900" text-anchor="middle">帅</text>
    <ellipse cx="88" cy="152" rx="4.5" ry="5.5" fill="#503b32" stroke="none"/>
    <ellipse cx="122" cy="152" rx="4.5" ry="5.5" fill="#503b32" stroke="none"/>
    <ellipse cx="75" cy="159" rx="8" ry="5" fill="#ed7867" stroke="none" opacity=".55"/>
    <ellipse cx="135" cy="159" rx="8" ry="5" fill="#ed7867" stroke="none" opacity=".55"/>
    <path d="M99 157q6 9 12 0" fill="#ed7867" stroke-width="2.8"/>
  </g>
  <!-- Mint general, a friendly companion. -->
  <g transform="rotate(9 249 142)" stroke="#503b32" stroke-linecap="round" stroke-linejoin="round">
    <path d="m200 155-10-8M298 159l9 8" stroke-width="9"/>
    <ellipse cx="189" cy="145" rx="6" ry="8" fill="#503b32" stroke="none"/>
    <ellipse cx="309" cy="169" rx="6" ry="8" fill="#503b32" stroke="none" transform="rotate(-20 309 169)"/>
    <ellipse cx="225" cy="190" rx="10" ry="5.5" fill="#503b32" stroke="none"/>
    <ellipse cx="273" cy="190" rx="10" ry="5.5" fill="#503b32" stroke="none"/>
    <circle cx="249" cy="143" r="52" fill="#84a88b" stroke-width="3"/>
    <circle cx="249" cy="139" r="52" fill="url(#green)" stroke-width="3"/>
    <circle cx="249" cy="139" r="44" fill="#f4ecc1" stroke="#fff8e9" stroke-width="4"/>
    <path d="M218 108c6-7 13-11 21-12" stroke="#fff8e9" stroke-width="5"/>
    <text x="249" y="142" fill="#4e7957" stroke="none" font-family="'PingFang SC','Microsoft YaHei',sans-serif" font-size="41" font-weight="900" text-anchor="middle">将</text>
    <ellipse cx="233" cy="160" rx="4.5" ry="5.5" fill="#503b32" stroke="none"/>
    <ellipse cx="265" cy="160" rx="4.5" ry="5.5" fill="#503b32" stroke="none"/>
    <ellipse cx="220" cy="165" rx="7" ry="4.5" fill="#ed7867" stroke="none" opacity=".5"/>
    <ellipse cx="278" cy="165" rx="7" ry="4.5" fill="#ed7867" stroke="none" opacity=".5"/>
    <path d="M243 165q6 8 12 0" fill="#ed7867" stroke-width="2.8"/>
  </g>
  <g stroke="#efc77a" stroke-width="5" stroke-linecap="round">
    <path d="m176 98-1-10M181 118l7-7M155 78l-4-8M283 82l4-8"/>
  </g>
  <path d="m35 276 5-11 5 11 11 5-11 5-5 11-5-11-11-5z" fill="#b9d9bb" opacity=".65"/>
  <path d="M304 283c-2-13 7-22 19-21 1 12-5 20-19 21" fill="#93b69c"/>
  <path d="m304 283 12-13" stroke="#709476" stroke-width="2" stroke-linecap="round"/>
</svg>
